<svg width="117" height="117" viewBox="0 0 117 117" fill="none" xmlns="http://www.w3.org/2000/svg">
<path d="M58.5 102.79C49.7414 102.79 41.1794 100.193 33.8969 95.3271C26.6143 90.461 20.9382 83.5447 17.5865 75.4528C14.2347 67.3608 13.3577 58.4567 15.0664 49.8664C16.7751 41.276 20.9928 33.3853 27.1861 27.192C33.3794 20.9987 41.2702 16.781 49.8605 15.0722C58.4509 13.3635 67.355 14.2405 75.4469 17.5923C83.5389 20.9441 90.4552 26.6201 95.3212 33.9027C100.187 41.1852 102.784 49.7472 102.784 58.5058C102.771 70.2465 98.1004 81.5024 89.7985 89.8043C81.4965 98.1063 70.2407 102.776 58.5 102.79V102.79ZM58.5 20.0713C50.8984 20.0713 43.4675 22.3255 37.1469 26.5487C30.8264 30.772 25.9002 36.7746 22.9912 43.7976C20.0821 50.8206 19.321 58.5485 20.804 66.004C22.287 73.4596 25.9475 80.308 31.3227 85.6831C36.6979 91.0583 43.5462 94.7188 51.0018 96.2018C58.4574 97.6848 66.1853 96.9237 73.2082 94.0147C80.2312 91.1057 86.2339 86.1794 90.4571 79.8589C94.6803 73.5384 96.9345 66.1075 96.9345 58.5058C96.9237 48.3157 92.8708 38.546 85.6653 31.3405C78.4598 24.135 68.6901 20.0822 58.5 20.0713V20.0713Z" fill="white"/>
<path d="M43.875 76.05C43.2962 76.0499 42.7305 75.8781 42.2494 75.5563C41.7683 75.2345 41.3935 74.7773 41.1724 74.2424C40.9514 73.7075 40.8939 73.1191 41.0074 72.5515C41.1209 71.984 41.4002 71.4629 41.81 71.0541L54.3641 58.5L35.644 39.78C35.1112 39.2284 34.8164 38.4895 34.8231 37.7226C34.8297 36.9557 35.1374 36.222 35.6797 35.6797C36.222 35.1374 36.9556 34.8298 37.7226 34.8231C38.4895 34.8164 39.2283 35.1113 39.78 35.6441L60.5709 56.4408C61.1193 56.9894 61.4273 57.7332 61.4273 58.5088C61.4273 59.2844 61.1193 60.0283 60.5709 60.5768L45.9459 75.2018C45.3953 75.7479 44.6504 76.053 43.875 76.05Z" fill="white"/>
<path d="M99.8654 61.425H87.75C86.9743 61.425 86.2303 61.1168 85.6817 60.5683C85.1332 60.0198 84.825 59.2758 84.825 58.5C84.825 57.7243 85.1332 56.9803 85.6817 56.4317C86.2303 55.8832 86.9743 55.575 87.75 55.575H99.8654C100.641 55.575 101.385 55.8832 101.934 56.4317C102.482 56.9803 102.79 57.7243 102.79 58.5C102.79 59.2758 102.482 60.0198 101.934 60.5683C101.385 61.1168 100.641 61.425 99.8654 61.425V61.425Z" fill="white"/>
<path d="M29.25 61.425H17.1464C16.3706 61.425 15.6266 61.1168 15.0781 60.5683C14.5295 60.0198 14.2214 59.2758 14.2214 58.5C14.2214 57.7243 14.5295 56.9803 15.0781 56.4317C15.6266 55.8832 16.3706 55.575 17.1464 55.575H29.25C30.0258 55.575 30.7697 55.8832 31.3183 56.4317C31.8668 56.9803 32.175 57.7243 32.175 58.5C32.175 59.2758 31.8668 60.0198 31.3183 60.5683C30.7697 61.1168 30.0258 61.425 29.25 61.425Z" fill="white"/>
<path d="M58.5 102.79C57.7242 102.79 56.9803 102.482 56.4317 101.934C55.8832 101.385 55.575 100.641 55.575 99.8653V87.75C55.575 86.9742 55.8832 86.2302 56.4317 85.6817C56.9803 85.1331 57.7242 84.825 58.5 84.825C59.2758 84.825 60.0197 85.1331 60.5683 85.6817C61.1168 86.2302 61.425 86.9742 61.425 87.75V99.8653C61.425 100.641 61.1168 101.385 60.5683 101.934C60.0197 102.482 59.2758 102.79 58.5 102.79Z" fill="white"/>
<path d="M58.5 32.175C57.7242 32.175 56.9803 31.8669 56.4317 31.3183C55.8832 30.7698 55.575 30.0258 55.575 29.25V17.1464C55.575 16.3706 55.8832 15.6266 56.4317 15.0781C56.9803 14.5295 57.7242 14.2214 58.5 14.2214C59.2758 14.2214 60.0197 14.5295 60.5683 15.0781C61.1168 15.6266 61.425 16.3706 61.425 17.1464V29.25C61.425 30.0258 61.1168 30.7698 60.5683 31.3183C60.0197 31.8669 59.2758 32.175 58.5 32.175Z" fill="white"/>
</svg>
